<?xml version="1.0" encoding="utf-8"?>
<!-- Generator: Adobe Illustrator 22.0.1, SVG Export Plug-In . SVG Version: 6.00 Build 0)  -->
<svg version="1.1" id="Calque_1" xmlns="http://www.w3.org/2000/svg" xmlns:xlink="http://www.w3.org/1999/xlink" x="0px" y="0px"
	 viewBox="0 0 418.1 110" style="enable-background:new 0 0 418.1 110;" xml:space="preserve">
<style type="text/css">
	.st0{fill:#FF0000;}
	.st1{fill:#FFFFFF;}
</style>
<g id="SvgjsG1876" transform="matrix(1,0,0,1,0,0)">
</g>
<g id="SvgjsG1877" transform="matrix(1.0941106081008911,0,0,1.0941106081008911,10,5)">
	<path class="st0" d="M79.4,43.2c-3.7,18.3-19.9,32-39.3,32S4.6,61.5,0.8,43.2C0.3,45.8,0,48.5,0,51.3c0,22.1,17.9,40.1,40.1,40.1
		c22.1,0,40.1-17.9,40.1-40.1C80.2,48.5,79.9,45.8,79.4,43.2"/>
	<path class="st0" d="M21.7,10.5c-1.8,1.2-3.5,2.6-5.1,4.2c-12.7,12.7-12.7,33.2,0,45.9c6.3,6.3,14.6,9.5,23,9.5
		c8.3,0,16.6-3.2,23-9.5c1.6-1.6,3-3.3,4.2-5.1c-5.6,3.5-11.8,5.3-18,5.3c-8.3,0-16.6-3.2-23-9.5C14.7,40.2,13.3,23.1,21.7,10.5"/>
	<path class="st0" d="M48.7,0C34,0,21.9,11.8,21.7,26.6c-0.3,14.9,11.6,27.3,26.6,27.5c0.2,0,0.3,0,0.5,0c1.7,0,3.4-0.2,5-0.5
		c-23.4-27.9,0.9-53,0.9-53C52.9,0.3,51.1,0,49.2,0C49,0,48.9,0,48.7,0"/>
</g>
<g id="SvgjsG1878" transform="matrix(5.348189353942871,0,0,5.348189353942871,109.15598885793872,-22.92479108635098)">
	<path class="st1" d="M3.6,9.2l0.3,1.3l0,0c0.3-0.4,0.6-0.8,1-1.1C5.3,9.1,5.9,9,6.5,9c0.4,0,0.7,0,1,0.1v3.1
		C7.3,12.1,7,12.1,6.8,12c-0.3,0-0.6,0-0.7,0c-0.7,0-1.3,0.2-1.6,0.7C4.1,13.2,4,13.9,4,14.8V20H0.7V9.2H3.6z M12.3,9
		c1.5,0,2.9,0.3,3.5,1.6c0.6,1.3,0.7,2.9,0.7,4.2c0,0.6,0,1.4-0.1,2.1c0,0.8-0.2,1.5-0.6,2.1c-0.3,0.6-0.8,0.9-1.5,1s-1.3,0.2-2,0.2
		s-1.3-0.1-2-0.2s-1.1-0.5-1.5-1c-0.3-0.6-0.5-1.3-0.6-2.1c0-0.8-0.1-1.5-0.1-2.1c0-1.3,0.1-2.9,0.7-4.2C9.4,9.2,10.7,9,12.3,9z
		 M12.3,17.9c0.4,0,0.7-0.1,0.7-0.4c0.1-0.3,0.1-0.6,0.1-0.8c0-0.9,0-1.6,0-2.2c0-0.6,0-1.3,0-2.2c0-0.6-0.3-1-0.8-1s-0.8,0.3-0.8,1
		c0,0.9-0.1,1.6,0,2.2c0,0.6,0,1.3,0,2.2c0,0.3,0,0.6,0.1,0.8C11.6,17.7,11.9,17.9,12.3,17.9z M20.4,12.1c0,0.5,0.6,0.8,1,0.9
		l1.7,0.6c0.4,0.2,0.8,0.4,1.1,0.6c0.6,0.6,0.7,1.4,0.7,2.1v0.4c0,1-0.2,2-1,2.6S22,20,21.1,20c-1,0-2.3-0.1-3.1-0.7
		c-0.7-0.6-0.7-1.4-0.7-2.1v-0.7h2.9v0.3c0,0.3,0,0.6,0.1,0.8c0.1,0.2,0.3,0.3,0.7,0.3c0.2,0,0.3,0,0.5-0.1c0.3-0.2,0.2-0.6,0.2-0.9
		c0-0.5-0.6-0.8-1-0.9l-1.6-0.6c-0.4-0.1-0.8-0.3-1-0.6c-0.6-0.5-0.7-1.3-0.7-2.1v-0.4c0-0.9,0.1-2,0.8-2.6S20.1,9,21.1,9
		c0.5,0,1.1,0.1,1.7,0.2s1.1,0.4,1.4,0.9c0.2,0.3,0.4,0.7,0.4,1.1v1.3h-2.8v-0.2c0-0.3,0-0.6-0.1-0.8s-0.4-0.3-0.7-0.3
		c-0.2,0-0.3,0-0.4,0.1C20.4,11.5,20.4,11.8,20.4,12.1L20.4,12.1z M29.8,9c1.5,0,2.9,0.3,3.5,1.6s0.7,2.9,0.7,4.2
		c0,0.6,0,1.4-0.1,2.1c0,0.8-0.2,1.5-0.6,2.1c-0.3,0.6-0.8,0.9-1.5,1c-0.7,0.1-1.3,0.2-2,0.2s-1.3-0.1-2-0.2s-1.1-0.5-1.5-1
		c-0.3-0.6-0.5-1.3-0.6-2.1c0-0.8-0.1-1.5-0.1-2.1c0-1.3,0.1-2.9,0.7-4.2C26.9,9.2,28.3,9,29.8,9L29.8,9z M29.8,17.9
		c0.4,0,0.7-0.1,0.7-0.4c0.1-0.3,0.1-0.6,0.1-0.8c0-0.9,0-1.6,0-2.2c0-0.6,0-1.3,0-2.2c0-0.6-0.3-1-0.8-1s-0.8,0.3-0.8,1
		c0,0.9-0.1,1.6,0,2.2c0,0.6,0,1.3,0,2.2c0,0.3,0,0.6,0.1,0.8C29.1,17.7,29.4,17.9,29.8,17.9z M39.3,13.4v-0.8c0-0.2,0-0.6,0-0.8
		c-0.1-0.3-0.3-0.5-0.6-0.5s-0.5,0.1-0.6,0.3C38,11.8,38,12,38,12.4h-2.9c0-0.9,0-2,0.7-2.7c0.4-0.4,0.8-0.6,1.4-0.6
		C37.7,9,38.3,9,38.7,9c1,0,2.2,0,3,0.7c0.8,0.6,0.9,1.6,0.9,2.5V20h-2.8l-0.2-0.9l0,0c-0.3,0.5-0.6,0.8-1,0.9s-0.8,0.2-1.3,0.2
		c-0.8,0-1.7-0.2-2.1-0.9c-0.5-0.7-0.5-1.6-0.5-2.5c0-0.9,0.1-1.9,0.8-2.6c0.5-0.5,1.3-0.7,2-0.8c0.3-0.1,0.7-0.1,1-0.1
		C38.8,13.3,39.1,13.3,39.3,13.4z M39.5,17v-1.8c0,0-0.1,0-0.2,0c-0.4,0-0.7,0.1-0.8,0.3c-0.2,0.2-0.3,0.5-0.3,0.8v0.6
		c0,0.4,0.1,0.6,0.2,0.8c0.1,0.2,0.3,0.3,0.6,0.3s0.4-0.1,0.5-0.3C39.4,17.5,39.5,17.3,39.5,17z M53.6,20v-7.5
		c0-0.2-0.1-0.5-0.2-0.7c-0.1-0.2-0.3-0.3-0.6-0.3s-0.5,0.1-0.6,0.3S52,12.2,52,12.4V20h-3.2v-7.5c0-0.2-0.1-0.5-0.2-0.7
		c-0.1-0.2-0.3-0.3-0.6-0.3s-0.5,0.1-0.6,0.3s-0.2,0.4-0.2,0.6V20H44V9.2h3l0.3,1.2l0,0c0.2-0.5,0.6-0.9,1-1.1
		C48.7,9.1,49.2,9,49.8,9c0.5,0,0.9,0.1,1.3,0.3c0.4,0.2,0.8,0.6,1,1.1c0.3-0.5,0.6-0.9,0.9-1.1C53.4,9.1,53.9,9,54.5,9
		c0.7,0,1.3,0.2,1.7,0.6s0.7,1.1,0.7,1.9V20H53.6z"/>
</g>
</svg>
