<?xml version="1.0" encoding="utf-8"?>
<!-- Generator: Adobe Illustrator 22.0.1, SVG Export Plug-In . SVG Version: 6.00 Build 0)  -->
<svg version="1.1"
	 id="svg2" xmlns:cc="http://creativecommons.org/ns#" xmlns:dc="http://purl.org/dc/elements/1.1/" xmlns:rdf="http://www.w3.org/1999/02/22-rdf-syntax-ns#" xmlns:svg="http://www.w3.org/2000/svg"
	 xmlns="http://www.w3.org/2000/svg" xmlns:xlink="http://www.w3.org/1999/xlink" x="0px" y="0px" viewBox="0 0 800.1 157.2"
	 style="enable-background:new 0 0 800.1 157.2;" xml:space="preserve">
<style type="text/css">
	.st0{clip-path:url(#SVGID_2_);}
	.st1{fill:#212325;}
	.st2{fill:#BCBBBC;}
	.st3{fill:#F48023;}
	.st4{fill:#204156;}
	.st5{fill:#100E0F;}
</style>
<g>
	<defs>
		<rect id="SVGID_1_" x="16" y="-226" width="800.1" height="157.2"/>
	</defs>
	<clipPath id="SVGID_2_">
		<use xlink:href="#SVGID_1_"  style="overflow:visible;"/>
	</clipPath>
	<g id="g16" class="st0">
		<path id="path22" class="st1" d="M236.9-144.7l7.7-7.7h-15.7V-171h-8.3v58.9c0,8.4,4.8,15.2,14.5,15.2h5.9v-7.2h-4.4
			c-5.3,0-7.7-3.1-7.7-8.3v-32.4H236.9z M666.9-114.6V-179h-14.7v65.3c0,8.4,5.1,16.9,17.2,16.9h8.4v-12.5h-5.7
			C668.3-109.3,666.9-111.1,666.9-114.6L666.9-114.6z M800.6-155.9l-9.5,36.5l-12.1-36.5h-10.8l-12,36.5l-9.5-36.5h-15.7l18.2,59.1
			h12.1l12.4-37.1l12.4,37.1h12.1l18-59.1H800.6z M712.7-112c-1.7,1.7-4,2.6-6.9,2.6c-3,0-5.1-0.9-6.8-2.6
			c-3.1-3.1-3.4-8.3-3.4-14.4c0-6.1,0.3-11.2,3.4-14.3c1.7-1.7,3.9-2.6,6.8-2.6c2.9,0,5.2,0.9,6.9,2.6c3.1,3.1,3.4,8.2,3.4,14.3
			C716.1-120.3,715.8-115.1,712.7-112z M705.8-156.6c-8.7,0-14.6,3.4-18.3,7.3c-5.3,5.6-6.7,12.3-6.7,22.9c0,10.8,1.4,17.5,6.7,23
			c3.6,3.9,9.5,7.3,18.3,7.3c8.7,0,14.7-3.4,18.4-7.3c5.3-5.6,6.7-12.3,6.7-23c0-10.7-1.4-17.4-6.7-22.9
			C720.6-153.2,714.6-156.6,705.8-156.6z M619.4-162.1v65.2h14.8v-46.6h10.9v-11.2h-10.9v-6.5c0-3.4,1.7-5.3,5.2-5.3h5.7V-179h-8.4
			C624.7-179,619.4-170.5,619.4-162.1z M586.1-150.3v-5.7h-14.4v59.1h14.7v-35.6c0-7.5,5-10.9,9.5-10.9c3.6,0,5.5,1.2,7.8,3.5
			l11.2-11.2c-4.1-4.1-8.2-5.6-14-5.6C594.6-156.6,588.9-153.7,586.1-150.3L586.1-150.3z M527.3-131.9c0.1-2.6,0.5-4.2,1.4-6.4
			c1.6-3.5,4.9-6.1,9.9-6.1s8.3,2.6,9.9,6.1c0.9,2.2,1.2,3.7,1.4,6.4H527.3z M538.5-156.6c-15.3,0-25.8,10.9-25.8,30.2
			c0,23.9,13.4,30.3,27.3,30.3c10.7,0,16.5-3.3,22.5-9.3l-9-8.7c-3.7,3.7-6.9,5.6-13.4,5.6c-8.3,0-12.9-5.6-12.9-13.2h37v-6.6
			C564.3-144.6,555-156.6,538.5-156.6L538.5-156.6z M497.9-155.9L486-119.4l-12-36.5h-15.5l21.8,59.1h11.6l21.7-59.1H497.9z
			 M440.5-112c-1.7,1.7-4,2.6-6.9,2.6s-5.1-0.9-6.8-2.6c-3.1-3.1-3.4-8.3-3.4-14.4c0-6.1,0.3-11.2,3.4-14.3c1.7-1.7,3.9-2.6,6.8-2.6
			c2.9,0,5.2,0.9,6.9,2.6c3.1,3.1,3.4,8.2,3.4,14.3C443.9-120.3,443.5-115.1,440.5-112z M433.6-156.6c-8.7,0-14.6,3.4-18.3,7.3
			c-5.3,5.6-6.7,12.3-6.7,22.9c0,10.8,1.4,17.5,6.7,23c3.6,3.9,9.5,7.3,18.3,7.3c8.7,0,14.7-3.4,18.4-7.3c5.3-5.6,6.7-12.3,6.7-23
			c0-10.7-1.4-17.4-6.7-22.9C448.3-153.2,442.3-156.6,433.6-156.6z M394.5-153.7h-10.4l-25.7,25l0-50.3h-8.3v82.1h8.3l0-20.7
			l10.1-10.1l19,30.8h10.3l-23.5-36.6L394.5-153.7z M323.4-146.9c5.4,0,8.8,1.6,13,6.3c0,0,5.6-5.4,5.5-5.5
			c-5.8-6.2-10.8-8.3-18.5-8.3c-14.3,0-25.1,9.7-25.1,29.1c0,19.4,10.8,29.1,25.1,29.1c7.8,0,12.8-2.1,18.7-8.4l-5.7-5.4
			c-4.3,4.7-7.6,6.5-13,6.5c-5.5,0-10.1-2.2-13.1-6.5c-2.7-3.7-3.7-8.1-3.7-15.2c0-7.2,1-11.5,3.7-15.2
			C313.3-144.7,317.9-146.9,323.4-146.9L323.4-146.9z M282.6-116.9c0,4.7-0.9,8-2.9,9.8c-3.6,3.5-7.8,3.8-12.7,3.8
			c-9,0-13-3.1-13-9.7c0-6.6,4.2-10,12.7-10h15.9V-116.9z M268.2-154.3c-9.1,0-14.8,1.8-19.9,8.2c-0.1,0.1,5.4,5.5,5.4,5.5
			c3.3-4.7,7-6.5,14.3-6.5c10.4,0,14.5,4.2,14.5,12.5v5.4h-17.1c-12.7,0-19.6,6.5-19.6,16.4c0,4.5,1.5,8.8,4.3,11.5
			c3.6,3.7,8.2,5.2,16,5.2c7.6,0,11.8-1.5,16.4-6.1v5.4h8.3v-38.5C290.9-147.7,283.4-154.3,268.2-154.3L268.2-154.3z M197.2-128.8
			l-9.1-0.8c-7.1-0.6-9.9-3.5-9.9-8.3c0-5.8,4.4-9.3,12.7-9.3c5.9,0,11.1,1.4,15.1,4.5l5.4-5.4c-5.1-4.2-12.3-6.1-20.4-6.1
			c-12.1,0-20.9,6.2-20.9,16.6c0,9.3,5.9,14.3,17,15.2l9.3,0.8c6.6,0.6,9.5,3.3,9.5,8.3c0,6.7-5.8,10-15.1,10
			c-7,0-13.1-1.8-17.6-6.6l-5.5,5.5c6.2,6,13.7,8.2,23.3,8.2c13.7,0,23.1-6.3,23.1-17.3C213.9-124.1,207.1-127.9,197.2-128.8"/>
		<path id="path24" class="st2" d="M128.1-82.9v-42.1h14v56.1H16v-56.1h14v42.1H128.1"/>
		<path id="path26" class="st3" d="M44.1-96.9h70.1v-14H44.1V-96.9z M106.9-226l-11.3,8.4l41.8,56.3l11.3-8.4L106.9-226z
			 M72.1-192.8L126-148l9-10.8l-53.9-44.9L72.1-192.8z M54.5-161.7l63.6,29.6l5.9-12.7l-63.6-29.6L54.5-161.7z M45.5-128.8
			l68.6,14.4l2.9-13.7l-68.6-14.4L45.5-128.8"/>
	</g>
</g>
<g>
	<path id="letter-c" inkscape:connector-curvature="0" d="M125.3,49.7c7,0,13.5,2.5,18.5,6.8l6.8-8.2c-6.8-5.8-15.7-9.2-25.3-9.2
		c-21.8,0-39.5,17.7-39.5,39.5c0,21.7,17.7,39.5,39.5,39.5c9.6,0,18.5-3.5,25.3-9.3l-6.8-8.1c-5,4.2-11.5,6.7-18.5,6.7
		c-16,0-28.9-12.9-28.9-28.8C96.4,62.6,109.3,49.7,125.3,49.7L125.3,49.7z"/>
	<path id="letter-d" inkscape:connector-curvature="0" d="M343.9,105.1H328V52h15.9c14.7,0,26.6,11.9,26.6,26.6
		C370.5,93.2,358.6,105.1,343.9,105.1 M343.9,41.3h-21.2c-3,0-5.4,2.4-5.4,5.4v63.8c0,2.9,2.4,5.3,5.4,5.3h21.2
		c20.6,0,37.3-16.7,37.3-37.2C381.2,58,364.5,41.3,343.9,41.3z"/>
	<path id="letter-e" inkscape:connector-curvature="0" d="M410,46.7v63.8c0,2.9,2.3,5.3,5.3,5.3h44.3v-10.7h-39V83.9h24.8V73.2
		h-24.8V52h39V41.3h-44.3C412.3,41.3,410,43.7,410,46.7L410,46.7z"/>
	<path id="letter-e-again" inkscape:connector-curvature="0" d="M570.9,46.7v63.8c0,2.9,2.4,5.3,5.3,5.3h44.4v-10.7h-39V83.9h24.8
		V73.2h-24.8V52h39V41.3h-44.4C573.3,41.3,570.9,43.7,570.9,46.7L570.9,46.7z"/>
	<path id="letter-p" inkscape:connector-curvature="0" d="M520.3,73.2h-17.7V52h17.7c5.9,0,10.7,4.7,10.7,10.6
		S526.2,73.2,520.3,73.2 M520.3,41.3h-23c-3,0-5.3,2.4-5.3,5.4v69.1h10.6V83.9h17.7c11.7,0,21.3-9.6,21.3-21.3S532,41.3,520.3,41.3
		L520.3,41.3z"/>
	<path id="letter-n" inkscape:connector-curvature="0" d="M703.7,41.3v54.5l-43.8-52.6c-1.4-1.7-3.8-2.3-5.9-1.5
		c-2.1,0.7-3.5,2.7-3.5,5v69.1h10.7V61.3l43.7,52.6c1.1,1.2,2.6,1.9,4.1,1.9c0.6,0,1.2-0.1,1.8-0.3c2.1-0.8,3.5-2.8,3.5-5V41.3
		H703.7z"/>
	<path id="letter-icon" inkscape:connector-curvature="0" d="M256.5,72.7l-21.1-14.1V35.8l38.2,25.5L256.5,72.7z M265.3,78.6
		l12.2-8.2v16.3L265.3,78.6z M235.4,98.6l21.1-14.2l17.1,11.4l-38.2,25.5V98.6z M204.5,84.4l21.1,14.2v22.7l-38.2-25.5L204.5,84.4z
		 M195.7,78.6l-12.2,8.1V70.4L195.7,78.6z M225.6,58.6l-21.1,14.1l-17.1-11.4l38.2-25.5V58.6z M230.5,90.1l-17.2-11.5L230.5,67
		l17.2,11.6L230.5,90.1z M287.1,60.4c0-0.1,0-0.2,0-0.4c-0.1-0.1-0.1-0.1-0.1-0.2c-0.1-0.1-0.1-0.3-0.2-0.4c0-0.1,0-0.1-0.1-0.2
		c0-0.1-0.1-0.2-0.1-0.3c-0.1-0.1-0.1-0.2-0.2-0.3c0-0.1-0.1-0.2-0.2-0.3c0,0-0.1-0.1-0.1-0.2c-0.1-0.1-0.2-0.1-0.3-0.2
		c0-0.1-0.1-0.2-0.2-0.2c-0.1-0.1-0.2-0.2-0.3-0.3c0,0-0.1-0.1-0.2-0.1c0,0,0-0.1-0.1-0.1l-51.8-34.5c-1.6-1.1-3.8-1.1-5.4,0
		l-51.9,34.5v0.1c-0.1,0-0.2,0.1-0.3,0.1c-0.1,0.1-0.1,0.2-0.2,0.3c-0.1,0-0.2,0.1-0.2,0.2c-0.1,0.1-0.2,0.1-0.3,0.2
		c0,0.1-0.1,0.2-0.1,0.2c-0.1,0.1-0.2,0.2-0.2,0.3c-0.1,0.1-0.1,0.2-0.2,0.3c0,0.1-0.1,0.2-0.1,0.3c-0.1,0.1-0.1,0.1-0.2,0.2
		c0,0.1,0,0.3-0.1,0.4c0,0.1,0,0.1-0.1,0.2c0,0.2,0,0.3,0,0.4c-0.1,0.1-0.1,0.2-0.1,0.2c0,0.3,0,0.5,0,0.7v34.5c0,0.3,0,0.5,0,0.7
		c0,0.1,0,0.1,0.1,0.2c0,0.1,0,0.3,0,0.4c0.1,0.1,0.1,0.2,0.1,0.2c0.1,0.2,0.1,0.3,0.1,0.4c0.1,0.1,0.1,0.2,0.2,0.2
		c0,0.1,0.1,0.2,0.1,0.4c0.1,0,0.1,0.1,0.2,0.2c0,0.1,0.1,0.2,0.2,0.3c0,0,0.1,0.1,0.1,0.2c0.1,0.1,0.2,0.2,0.3,0.2
		c0,0.1,0.1,0.2,0.2,0.2c0.1,0.1,0.1,0.2,0.2,0.3c0.1,0,0.2,0.1,0.3,0.1c0,0.1,0,0.1,0,0.1l51.9,34.6c0.8,0.5,1.8,0.8,2.7,0.8
		s1.9-0.3,2.7-0.8L285,99.9c0.1,0,0.1,0,0.1-0.1c0.1,0,0.2-0.1,0.2-0.1c0.1-0.1,0.2-0.2,0.3-0.3c0.1,0,0.2-0.1,0.2-0.2
		c0.1,0,0.2-0.1,0.3-0.2c0-0.1,0.1-0.2,0.1-0.2c0.1-0.1,0.2-0.2,0.2-0.3c0.1-0.1,0.1-0.2,0.2-0.2c0-0.2,0.1-0.3,0.1-0.4
		c0.1,0,0.1-0.1,0.1-0.2c0.1-0.1,0.1-0.2,0.2-0.4c0,0,0-0.1,0.1-0.2c0-0.1,0-0.3,0-0.4s0.1-0.1,0.1-0.2c0-0.2,0-0.4,0-0.7V61.3
		c0-0.2,0-0.4,0-0.7C287.2,60.6,287.1,60.5,287.1,60.4L287.1,60.4z"/>
</g>
<g>
	<path class="st4" d="M-840.8-93.1c-1.1-3.4-1.7-7.7-1.7-13.5c0-5.8,0.6-10.1,1.7-13.5c3.1-9.8,11.5-15.1,22.4-15.1
		c8.1,0,14.5,3.3,18.8,8.5c0.3,0.5,0.4,1.1-0.1,1.6l-7.1,6.2c-0.6,0.5-1.1,0.3-1.6-0.2c-2.7-3.1-5.5-4.8-10-4.8
		c-4.8,0-8.5,2.4-10.1,7.2c-0.9,2.7-1.1,5.9-1.1,10.1c0,4.2,0.2,7.5,1.1,10.2c1.6,4.7,5.3,7,10.1,7c4.5,0,7.3-1.7,10-4.8
		c0.5-0.6,1-0.6,1.6-0.1l7.1,6.2c0.6,0.5,0.4,1,0.1,1.6c-4.3,5.1-10.7,8.4-18.8,8.4C-829.3-78-837.7-83.3-840.8-93.1 M-595.1-93.1
		c-1.1-3.4-1.7-7.7-1.7-13.5c0-5.8,0.6-10.1,1.7-13.5c3.1-9.8,11.5-15.1,22.4-15.1c8.1,0,14.5,3.3,18.8,8.5c0.3,0.5,0.5,1.1-0.1,1.6
		l-7.1,6.2c-0.6,0.5-1.1,0.3-1.6-0.2c-2.7-3.1-5.5-4.8-10-4.8c-4.8,0-8.5,2.4-10.1,7.2c-0.9,2.7-1.1,5.9-1.1,10.1
		c0,4.2,0.2,7.5,1.1,10.2c1.6,4.7,5.3,7,10.1,7c4.5,0,7.3-1.7,10-4.8c0.5-0.6,1-0.6,1.6-0.1l7.1,6.2c0.6,0.5,0.5,1,0.1,1.6
		c-4.3,5.1-10.7,8.4-18.8,8.4C-583.7-78-592-83.3-595.1-93.1 M-311.2-79.2c-0.7,0-1.1-0.5-1.1-1.1v-31.6c0-7-3.5-11.9-10.2-11.9
		c-6.5,0-10.3,4.9-10.3,11.9v31.6c0,0.7-0.5,1.1-1.1,1.1h-10.3c-0.7,0-1.1-0.5-1.1-1.1v-31.6c0-7-3.5-11.9-10.2-11.9
		c-6.5,0-10.4,4.9-10.4,11.9v31.6c0,0.7-0.4,1.1-1.1,1.1h-10.3c-0.7,0-1.1-0.5-1.1-1.1v-52.5c0-0.7,0.4-1.1,1.1-1.1h10.3
		c0.7,0,1.1,0.5,1.1,1.1v4h0.1c2.4-3.4,7.1-6.4,14.3-6.4c6.4,0,11.6,2.6,14.8,7.3h0.1c4.2-4.5,9.6-7.3,17.3-7.3
		c12.6,0,19.7,8.6,19.7,20.3v34.5c0,0.7-0.5,1.1-1.1,1.1H-311.2L-311.2-79.2z M-284.1-58.8c-0.7,0-1.1-0.5-1.1-1.1V-69
		c0-0.7,0.4-1.1,1.1-1.1h2c4.3,0,6.4-1.9,8.1-6.5l1.6-4.7l-19.8-51.6c-0.2-0.7,0.2-1.1,0.9-1.1h11.1c0.7,0,1.1,0.5,1.3,1.1
		l12.3,35.8h0.2l11.7-35.8c0.2-0.7,0.7-1.1,1.3-1.1h10.7c0.7,0,1.1,0.5,0.9,1.1l-20.7,57c-4.7,12.9-9.2,17-18.2,17L-284.1-58.8
		L-284.1-58.8z M-789.3-93.1c-1.2-3.9-1.8-7.5-1.8-13.5c0-6,0.6-9.6,1.8-13.5c3-9.5,11.3-15.1,22.4-15.1c10.9,0,19.2,5.6,22.3,15.1
		c1.2,3.9,1.8,7.5,1.8,13.5c0,6-0.6,9.6-1.8,13.5c-3,9.5-11.4,15.1-22.3,15.1C-778-78-786.3-83.5-789.3-93.1 M-756.8-96.5
		c0.9-2.8,1.1-5.5,1.1-10.1c0-4.6-0.2-7.1-1.1-10.1c-1.6-4.5-5.1-7.2-10.1-7.2c-5.1,0-8.7,2.6-10.2,7.2c-0.9,3-1.1,5.4-1.1,10.1
		c0,4.7,0.2,7.3,1.1,10.1c1.6,4.5,5.2,7.1,10.2,7.1C-761.9-89.3-758.4-91.9-756.8-96.5 M-523.9-135.2c-8.9,0-14.8,2.2-19.2,5.3
		c-0.4,0.3-0.6,0.9-0.2,1.5l4.1,7.5c0.3,0.6,1,0.7,1.6,0.2c2.6-2,6.3-3.8,12.4-3.8c8.9,0,11.9,2.7,12,8.6h0v0.1c0,0.1,0,0.3,0,0.4
		v17.7c0,6.2-4.3,9.3-12,9.3c-6.1,0-9.3-2.3-9.3-6.8c0-5.1,3.6-7.4,11.7-7.4l2.5,0c0.7,0,1.1-0.5,1.1-1.1v-7.3
		c0-0.7-0.5-1.1-1.1-1.1h-0.5l-3.9,0c-13.4,0-21.7,5.5-21.7,17.4c0,11.5,8.3,16.7,18.2,16.7c7.6,0,12.7-2.6,15.3-6.4h0.1v4
		c0,0.7,0.5,1.1,1.1,1.1h9.4c0.7,0,1.1-0.5,1.1-1.1v-35.8C-501.3-129.5-507.3-135.2-523.9-135.2 M-658.2-112c-0.3,0-0.5,0.2-0.5,0.5
		v8.6c0,0.3,0.2,0.5,0.5,0.5h27.8c0.8,0,1.2-0.5,1.2-1.1c0-8.9-0.6-12.6-1.8-16.5c-3-9.3-11.1-15.1-22.3-15.1
		c-10.8,0-19.1,5.6-22.2,15.1c-1.1,3.5-1.8,7.8-1.8,13.5s0.8,9.9,1.9,13.4c3,9.5,11.1,15.2,22.6,15.2c10,0,17.7-3.9,22.3-9.3
		c0.4-0.6,0.4-1.1-0.1-1.6l-6.6-5.9c-0.6-0.5-1.1-0.3-1.7,0.2c-2.7,3-6.6,5.2-12.7,5.2c-6.1,0-10.3-3-12.1-8.3
		c-0.3-0.8-0.5-1.6-0.6-2.4h0c-0.4-2.3-0.7-4.6-0.7-7.9c0.1-3.1,0.3-5.1,0.7-7.6c0,0,0-0.1,0-0.1l0-0.1v0c0.1-0.6,0.3-1.2,0.4-1.7
		c1.5-4.4,5.5-7,10.7-7c5.1,0,9.1,2.6,10.6,7c0.5,1.4,0.7,2.7,0.7,4.7c0,0.5-0.2,0.7-0.7,0.7h-14.8l0,0L-658.2-112L-658.2-112z
		 M-687.6-156.4h-10.3c-0.7,0-1.1,0.5-1.1,1.1v51.7h-0.1c-0.1,3.1-0.5,5.2-1.1,7.1c-1.5,4.5-4.9,7-10.1,7c-5.1,0-8.5-2.5-10-7
		c-0.8-2.5-1.1-5.2-1.1-10.2c0-5,0.3-7.7,1.1-10.2c1.4-4.4,4.8-7,9.7-7.1h4.4c0.2-0.1,0.4-0.2,0.4-0.5l0.1-10.4
		c0-0.2-0.2-0.5-0.4-0.5l-3.5,0h-4.1v0c-9.1,0.1-15.7,4.5-18.5,13.1c-1.3,4.2-1.9,8.1-1.9,15.4c0,7.4,0.6,11.2,1.9,15.4
		c2.8,8.7,9.5,13.2,18.7,13.2c7.3,0,11.8-2.7,14.4-6.5h0.1v4.1c0,0.7,0.5,1.1,1.1,1.1h10.3c0.7,0,1.1-0.5,1.1-1.1v-74.8
		C-686.4-156-686.9-156.4-687.6-156.4 M-416.8-112c-0.3,0-0.5,0.2-0.5,0.5v8.6c0,0.3,0.2,0.5,0.5,0.5h27.9c0.8,0,1.2-0.5,1.2-1.1
		c0-8.9-0.6-12.6-1.8-16.5c-3-9.3-11.1-15.1-22.3-15.1c-10.8,0-19.1,5.6-22.2,15.1c-1.1,3.5-1.8,7.8-1.8,13.5s0.8,9.9,1.9,13.4
		c3,9.5,11.1,15.2,22.6,15.2c10,0,17.7-3.9,22.3-9.3c0.4-0.6,0.4-1.1-0.1-1.6l-6.6-5.9c-0.6-0.5-1.1-0.3-1.7,0.2
		c-2.7,3-6.6,5.2-12.7,5.2c-6.1,0-10.3-3-12.1-8.3c-0.3-0.8-0.5-1.6-0.6-2.4h0c-0.4-2.3-0.7-4.6-0.7-7.9c0.1-3.1,0.3-5.1,0.7-7.6
		c0,0,0-0.1,0-0.1c0,0,0,0,0-0.1v0c0.1-0.6,0.3-1.2,0.4-1.7c1.5-4.4,5.5-7,10.7-7c5.1,0,9.1,2.6,10.6,7c0.5,1.4,0.7,2.7,0.7,4.7
		c0,0.5-0.2,0.7-0.7,0.7h-14.8v0L-416.8-112L-416.8-112z M-456-156.4c-0.7,0-1.1,0.5-1.1,1.1v51.8c-0.2,3.1-0.5,5.2-1.1,7.1
		c-1.5,4.5-5,7-10.1,7c-5.1,0-8.5-2.5-10-7c-0.8-2.5-1.1-5.2-1.1-10.2c0-5,0.3-7.7,1.1-10.2c1.4-4.5,4.8-6.9,9.7-7l4.4,0
		c0.7,0,1.1-0.5,1.1-1.1v-9.1c0-0.7-0.5-1.1-1.1-1.1h-0.5l-6.7,0h-0.5c-9.1,0.1-15.7,4.5-18.5,13.2c-1.4,4.2-1.9,8.1-1.9,15.4
		c0,7.4,0.6,11.2,1.9,15.4c2.8,8.7,9.6,13.2,18.8,13.2c7.3,0,11.8-2.7,14.4-6.5l0.1,4.1c0,0.7,0.5,1.1,1.1,1.1h10.3
		c0.7,0,1.1-0.4,1.1-1.1v-74.9c0-0.7-0.5-1.1-1.1-1.1H-456L-456-156.4z M-596-63.7v10.3c0,0.7,0.5,1.1,1.1,1.1h38.3
		c0.7,0,1.1-0.5,1.1-1.1v-10.3c0-0.7-0.5-1.1-1.1-1.1h-38.3C-595.5-64.8-596-64.4-596-63.7"/>
	<path class="st4" d="M-605.7-183.2C-605.7-183.2-605.7-183.3-605.7-183.2L-605.7-183.2c-0.3-0.3-0.6-0.4-0.9-0.4H-865
		c-0.1,0-0.2,0-0.2,0l-0.1,0c-0.1,0-0.1,0-0.2,0c0,0,0,0,0,0c-0.4,0.2-0.6,0.5-0.6,1v129.1c0,0.4,0.2,0.7,0.4,0.9c0,0,0,0,0.1,0.1v0
		c0.2,0.1,0.4,0.2,0.7,0.2h258.4c0.4,0,0.7-0.1,0.9-0.4c0.2-0.2,0.2-0.5,0.2-0.7v-129.1C-605.4-182.7-605.5-183-605.7-183.2
		L-605.7-183.2z M-852.4-64.8c-0.1,0-0.2,0-0.2,0c0,0,0,0-0.1,0c-0.1,0-0.1,0-0.2,0c0,0,0,0,0,0c-0.4-0.2-0.6-0.5-0.6-1v-103.9
		c0-0.5,0.2-0.9,0.6-1c0,0,0,0,0,0c0,0,0.2-0.1,0.2-0.1c0.1,0,0.2,0,0.2,0h233.3c0.1,0,0.2,0,0.2,0c0,0,0,0,0.1,0c0.1,0,0.1,0,0.2,0
		c0,0,0,0,0,0c0.4,0.2,0.6,0.5,0.6,1V-66c0,0.5-0.2,0.9-0.6,1c0,0,0,0,0,0c0,0-0.1,0-0.2,0c0,0,0,0-0.1,0c-0.1,0-0.1,0-0.2,0
		L-852.4-64.8L-852.4-64.8z"/>
</g>
<g>
	<path class="st5" d="M-706,67.7h-40.4c-1,0-1.9,0.8-1.9,1.9v19.7c0,1,0.8,1.9,1.9,1.9h15.7v24.5c0,0-3.5,1.2-13.3,1.2
		c-11.5,0-27.6-4.2-27.6-39.6c0-35.4,16.8-40.1,32.5-40.1c13.6,0,19.5,2.4,23.2,3.6c1.2,0.4,2.3-0.8,2.3-1.9l4.5-19.1
		c0-0.5-0.2-1.1-0.7-1.5c-1.5-1.1-10.8-6.3-34.2-6.3c-26.9,0-54.6,11.5-54.6,66.6c0,55.1,31.6,63.3,58.3,63.3
		c22.1,0,35.5-9.4,35.5-9.4c0.6-0.3,0.6-1.1,0.6-1.4V69.6C-704.1,68.6-705,67.7-706,67.7z"/>
	<path class="st5" d="M-498,18.7c0-1.1-0.8-1.9-1.9-1.9h-22.7c-1,0-1.9,0.8-1.9,1.9c0,0,0,43.9,0,43.9h-35.4V18.7
		c0-1.1-0.8-1.9-1.9-1.9h-22.7c-1,0-1.9,0.8-1.9,1.9v118.9c0,1,0.8,1.9,1.9,1.9h22.7c1,0,1.9-0.9,1.9-1.9V86.8h35.4
		c0,0-0.1,50.9-0.1,50.9c0,1,0.8,1.9,1.9,1.9h22.8c1,0,1.9-0.9,1.9-1.9V18.7z"/>
	<g>
		<g>
			<path class="st5" d="M-663.1,34.3c0-8.2-6.6-14.8-14.7-14.8c-8.1,0-14.6,6.6-14.6,14.8c0,8.2,6.6,14.8,14.6,14.8
				C-669.7,49.2-663.1,42.5-663.1,34.3z"/>
			<path class="st5" d="M-664.8,112.6c0-3,0-54.9,0-54.9c0-1-0.8-1.9-1.9-1.9h-22.7c-1,0-2,1.1-2,2.1c0,0,0,66,0,78.6
				c0,2.3,1.4,3,3.3,3c0,0,9.7,0,20.4,0c2.2,0,2.8-1.1,2.8-3C-664.8,132.3-664.8,115.8-664.8,112.6z"/>
		</g>
	</g>
	<path class="st5" d="M-411.7,56h-22.5c-1,0-1.9,0.9-1.9,1.9v58.3c0,0-5.7,4.2-13.9,4.2s-10.3-3.7-10.3-11.7c0-8,0-50.8,0-50.8
		c0-1-0.8-1.9-1.9-1.9H-485c-1,0-1.9,0.9-1.9,1.9c0,0,0,31,0,54.7c0,23.6,13.2,29.4,31.3,29.4c14.9,0,26.9-8.2,26.9-8.2
		s0.6,4.3,0.8,4.8c0.3,0.5,0.9,1,1.7,1l14.6-0.1c1,0,1.9-0.9,1.9-1.9l0-79.8C-409.8,56.8-410.6,56-411.7,56z"/>
	<path class="st5" d="M-350.1,53.3c-12.8,0-21.5,5.7-21.5,5.7V18.7c0-1.1-0.8-1.9-1.9-1.9h-22.8c-1,0-1.9,0.8-1.9,1.9v118.9
		c0,1,0.8,1.9,1.9,1.9c0,0,15.8,0,15.8,0c0.7,0,1.3-0.4,1.6-1c0.4-0.6,1-5.5,1-5.5s9.3,8.8,27,8.8c20.7,0,32.6-10.5,32.6-47.2
		C-318.3,58.1-337.2,53.3-350.1,53.3z M-358.9,120.3c-7.8-0.2-13.1-3.8-13.1-3.8V78.8c0,0,5.2-3.2,11.7-3.8
		c8.1-0.7,15.9,1.7,15.9,21.1C-344.5,116.6-348,120.6-358.9,120.3z"/>
	<path class="st5" d="M-599.5,55.8h-17c0,0,0-22.5,0-22.5c0-0.9-0.4-1.3-1.4-1.3h-23.2c-0.9,0-1.4,0.4-1.4,1.3v23.3
		c0,0-11.6,2.8-12.4,3c-0.8,0.2-1.4,1-1.4,1.8V76c0,1.1,0.8,1.9,1.9,1.9h11.9c0,0,0,15.3,0,35.2c0,26.1,18.3,28.7,30.7,28.7
		c5.7,0,12.4-1.8,13.5-2.2c0.7-0.2,1.1-0.9,1.1-1.7l0-16.1c0-1-0.9-1.9-1.9-1.9c-1,0-3.5,0.4-6.2,0.4c-8.4,0-11.2-3.9-11.2-8.9
		c0-5,0-33.4,0-33.4h17c1,0,1.9-0.8,1.9-1.9V57.7C-597.6,56.6-598.4,55.8-599.5,55.8z"/>
</g>
</svg>
